<svg xmlns="http://www.w3.org/2000/svg" xmlns:xlink="http://www.w3.org/1999/xlink" version="1.1" x="0px" y="0px" viewBox="0 0 512 640" enable-background="new 0 0 512 512" xml:space="preserve"><path d="M510,256C510,126.8,406.4,2,256,2C119.1,2,2,111.5,2,256c0,134.6,107.1,254,254,254C401.2,510,510,389.9,510,256z   M18.6,247.8C20.5,191,42.4,137.5,80.9,95.6c16.1,15.4,33.8,28.5,52.9,39c-10.1,33.8-16.2,72.3-16.9,113.2H18.6z M247.8,149.3  c-33.3-1.1-65.4-9-94.7-23.1C173.7,65.5,208.2,24.1,247.8,19V149.3z M264.2,165.7c35-1.1,68.7-9.2,99.6-23.7  c9,31.6,14.3,67.6,15,105.9H264.2V165.7z M264.2,149.3V19c39.6,5.1,74.1,46.5,94.7,107.2C329.6,140.3,297.5,148.2,264.2,149.3z   M314.5,25.6c39.2,9.9,75.3,29.8,105.2,58.3c-14.2,13.6-29.9,25.2-46.6,34.7C358.8,78.4,338.5,45.9,314.5,25.6z M138.9,118.7  c-16.7-9.5-32.4-21.1-46.6-34.7c29.9-28.6,65.9-48.5,105.2-58.3C173.5,45.9,153.2,78.4,138.9,118.7z M148.2,142  c30.9,14.5,64.6,22.6,99.6,23.7v82.2H133.2C133.9,209.6,139.2,173.6,148.2,142z M247.8,264.2v82.1c-35,1.1-68.7,9.2-99.6,23.7  c-9-31.6-14.3-67.6-15-105.8H247.8z M247.8,362.7V493c-39.6-5.1-74.1-46.5-94.7-107.3C182.4,371.7,214.5,363.8,247.8,362.7z   M264.2,493V362.7c33.3,1.1,65.4,9,94.7,23.1C338.3,446.5,303.8,488,264.2,493z M264.2,346.3v-82.1h114.6c-0.7,38.2-6,74.2-15,105.8  C332.9,355.5,299.2,347.4,264.2,346.3z M395.2,264.2h98.2c-1.9,56.8-23.8,110.2-62.3,152.2c-16.1-15.4-33.8-28.4-52.8-38.9  C388.5,343.6,394.5,305.1,395.2,264.2z M493.4,247.8h-98.2c-0.7-40.9-6.7-79.4-16.9-113.3c19-10.5,36.8-23.6,52.8-38.9  C469.6,137.5,491.5,191,493.4,247.8z M18.6,264.2h98.2c0.7,40.9,6.7,79.4,16.9,113.2c-19,10.5-36.8,23.6-52.8,38.9  C42.4,374.4,20.5,321,18.6,264.2z M92.3,428.1c14.2-13.6,29.9-25.2,46.6-34.7c14.2,40.2,34.5,72.7,58.5,93.1  C158.2,476.5,122.2,456.6,92.3,428.1z M373.1,393.3c16.7,9.5,32.3,21.1,46.6,34.7c-29.9,28.5-65.9,48.4-105.1,58.3  C338.6,466,358.9,433.6,373.1,393.3z"/><text x="0" y="527" fill="#000000" font-size="5px" font-weight="bold" font-family="'Helvetica Neue', Helvetica, Arial-Unicode, Arial, Sans-serif">Created by Icon Fair</text><text x="0" y="532" fill="#000000" font-size="5px" font-weight="bold" font-family="'Helvetica Neue', Helvetica, Arial-Unicode, Arial, Sans-serif">from the Noun Project</text></svg>